{
  "accessors": [
    {
      "bufferView": 2,
      "componentType": 5126,
      "count": 394,
      "max": [
        0.37828531861305237,
        0.3954564034938812,
        -0.2524072229862213
      ],
      "min": [
        0.20828531682491302,
        0.22480863332748413,
        -0.2818872034549713
      ],
      "type": "VEC3"
    },
    {
      "bufferView": 2,
      "byteOffset": 4728,
      "componentType": 5126,
      "count": 394,
      "max": [
        1.0,
        1.0,
        1.0
      ],
      "min": [
        -1.0,
        -1.0,
        -1.0
      ],
      "type": "VEC3"
    },
    {
      "bufferView": 1,
      "componentType": 5126,
      "count": 394,
      "max": [
        5.497786998748779,
        0.08500000089406967
      ],
      "min": [
        -0.2617993950843811,
        -0.08500000089406967
      ],
      "type": "VEC2"
    },
    {
      "bufferView": 0,
      "componentType": 5125,
      "count": 1032,
      "type": "SCALAR"
    },
    {
      "bufferView": 2,
      "byteOffset": 9456,
      "componentType": 5126,
      "count": 782,
      "max": [
        0.3657824993133545,
        0.3909233808517456,
        -0.25398722290992737
      ],
      "min": [
        0.2248225063085556,
        0.2246086299419403,
        -0.28235578536987305
      ],
      "type": "VEC3"
    },
    {
      "bufferView": 2,
      "byteOffset": 18840,
      "componentType": 5126,
      "count": 782,
      "max": [
        1.0,
        1.0,
        1.0
      ],
      "min": [
        -1.0,
        -1.0,
        -1.0
      ],
      "type": "VEC3"
    },
    {
      "bufferView": 1,
      "byteOffset": 3152,
      "componentType": 5126,
      "count": 782,
      "max": [
        6.2831854820251465,
        0.06700000166893005
      ],
      "min": [
        -0.40536680817604065,
        -0.13996000587940216
      ],
      "type": "VEC2"
    },
    {
      "bufferView": 0,
      "byteOffset": 4128,
      "componentType": 5125,
      "count": 1758,
      "type": "SCALAR"
    },
    {
      "bufferView": 2,
      "byteOffset": 28224,
      "componentType": 5126,
      "count": 20,
      "max": [
        0.3647320568561554,
        0.24860863387584686,
        -0.25398722290992737
      ],
      "min": [
        0.3494320511817932,
        0.2246086299419403,
        -0.284737229347229
      ],
      "type": "VEC3"
    },
    {
      "bufferView": 2,
      "byteOffset": 28464,
      "componentType": 5126,
      "count": 20,
      "max": [
        1.0,
        1.0,
        1.0
      ],
      "min": [
        -1.0,
        0.0,
        -1.0
      ],
      "type": "VEC3"
    },
    {
      "bufferView": 1,
      "byteOffset": 9408,
      "componentType": 5126,
      "count": 20,
      "max": [
        0.024000000208616257,
        0.030750000849366188
      ],
      "min": [
        -0.024000000208616257,
        -0.015375000424683094
      ],
      "type": "VEC2"
    },
    {
      "bufferView": 0,
      "byteOffset": 11160,
      "componentType": 5125,
      "count": 30,
      "type": "SCALAR"
    },
    {
      "bufferView": 2,
      "byteOffset": 28704,
      "componentType": 5126,
      "count": 1083,
      "max": [
        0.3647320568561554,
        0.23660863935947418,
        -0.25398722290992737
      ],
      "min": [
        0.24244879186153412,
        0.2246086299419403,
        -0.284737229347229
      ],
      "type": "VEC3"
    },
    {
      "bufferView": 2,
      "byteOffset": 41700,
      "componentType": 5126,
      "count": 1083,
      "max": [
        1.0,
        0.0,
        1.0
      ],
      "min": [
        -1.0,
        -1.0,
        -1.0
      ],
      "type": "VEC3"
    },
    {
      "bufferView": 1,
      "byteOffset": 9568,
      "componentType": 5126,
      "count": 1083,
      "max": [
        0.012000000104308128,
        0.015375000424683094
      ],
      "min": [
        -0.012000000104308128,
        -0.015375000424683094
      ],
      "type": "VEC2"
    },
    {
      "bufferView": 0,
      "byteOffset": 11280,
      "componentType": 5125,
      "count": 3567,
      "type": "SCALAR"
    },
    {
      "bufferView": 2,
      "byteOffset": 54696,
      "componentType": 5126,
      "count": 124,
      "max": [
        0.3614562749862671,
        0.23460863530635834,
        -0.27296867966651917
      ],
      "min": [
        0.35268205404281616,
        0.2246086299419403,
        -0.2817557752132416
      ],
      "type": "VEC3"
    },
    {
      "bufferView": 2,
      "byteOffset": 56184,
      "componentType": 5126,
      "count": 124,
      "max": [
        0.9941400289535522,
        0.0,
        0.9985332489013672
      ],
      "min": [
        -1.0,
        -0.7071687579154968,
        -0.9985349178314209
      ],
      "type": "VEC3"
    },
    {
      "bufferView": 1,
      "byteOffset": 18232,
      "componentType": 5126,
      "count": 124,
      "max": [
        6.716508388519287,
        1.5707963705062866
      ],
      "min": [
        0.43332311511039734,
        0.0
      ],
      "type": "VEC2"
    },
    {
      "bufferView": 0,
      "byteOffset": 25548,
      "componentType": 5125,
      "count": 348,
      "type": "SCALAR"
    },
    {
      "bufferView": 2,
      "byteOffset": 57672,
      "componentType": 5126,
      "count": 30,
      "max": [
        0.3612574338912964,
        0.2246086299419403,
        -0.2731683850288391
      ],
      "min": [
        0.35288205742836,
        0.2246086299419403,
        -0.28155606985092163
      ],
      "type": "VEC3"
    },
    {
      "bufferView": 2,
      "byteOffset": 58032,
      "componentType": 5126,
      "count": 30,
      "max": [
        0.0,
        -1.0,
        -0.0
      ],
      "min": [
        0.0,
        -1.0,
        -0.0
      ],
      "type": "VEC3"
    },
    {
      "bufferView": 1,
      "byteOffset": 19224,
      "componentType": 5126,
      "count": 30,
      "max": [
        0.00419999985024333,
        0.012193839997053146
      ],
      "min": [
        -0.004175379406660795,
        0.0038061595987528563
      ],
      "type": "VEC2"
    },
    {
      "bufferView": 0,
      "byteOffset": 26940,
      "componentType": 5125,
      "count": 87,
      "type": "SCALAR"
    },
    {
      "bufferView": 2,
      "byteOffset": 58392,
      "componentType": 5126,
      "count": 72,
      "max": [
        0.3620820641517639,
        0.23660863935947418,
        -0.25811222195625305
      ],
      "min": [
        0.3520820736885071,
        0.22660863399505615,
        -0.2666122019290924
      ],
      "type": "VEC3"
    },
    {
      "bufferView": 2,
      "byteOffset": 59256,
      "componentType": 5126,
      "count": 72,
      "max": [
        1.0,
        0.0,
        1.0
      ],
      "min": [
        -1.0,
        -1.0,
        -1.0
      ],
      "type": "VEC3"
    },
    {
      "bufferView": 1,
      "byteOffset": 19464,
      "componentType": 5126,
      "count": 72,
      "max": [
        0.011250000447034836,
        0.009999999776482582
      ],
      "min": [
        -0.011250000447034836,
        -0.010950000025331974
      ],
      "type": "VEC2"
    },
    {
      "bufferView": 0,
      "byteOffset": 27288,
      "componentType": 5125,
      "count": 108,
      "type": "SCALAR"
    },
    {
      "bufferView": 2,
      "byteOffset": 60120,
      "componentType": 5126,
      "count": 136,
      "max": [
        0.2745792269706726,
        0.24860863387584686,
        -0.25398722290992737
      ],
      "min": [
        0.24079880118370056,
        0.2246086299419403,
        -0.284737229347229
      ],
      "type": "VEC3"
    },
    {
      "bufferView": 2,
      "byteOffset": 61752,
      "componentType": 5126,
      "count": 136,
      "max": [
        1.0,
        1.0,
        1.0
      ],
      "min": [
        -1.0,
        -1.0,
        -1.0
      ],
      "type": "VEC3"
    },
    {
      "bufferView": 1,
      "byteOffset": 20040,
      "componentType": 5126,
      "count": 136,
      "max": [
        0.024000000208616257,
        0.030750000849366188
      ],
      "min": [
        -0.024000000208616257,
        -0.015375000424683094
      ],
      "type": "VEC2"
    },
    {
      "bufferView": 0,
      "byteOffset": 27720,
      "componentType": 5125,
      "count": 312,
      "type": "SCALAR"
    },
    {
      "bufferView": 2,
      "byteOffset": 63384,
      "componentType": 5126,
      "count": 640,
      "max": [
        0.2897977828979492,
        0.23460863530635834,
        -0.25663721561431885
      ],
      "min": [
        0.24394673109054565,
        0.22660863399505615,
        -0.27613720297813416
      ],
      "type": "VEC3"
    },
    {
      "bufferView": 2,
      "byteOffset": 71064,
      "componentType": 5126,
      "count": 640,
      "max": [
        1.0,
        0.40083643794059753,
        0.9161770343780518
      ],
      "min": [
        -1.0,
        -0.40083643794059753,
        -0.9161770343780518
      ],
      "type": "VEC3"
    },
    {
      "bufferView": 1,
      "byteOffset": 21128,
      "componentType": 5126,
      "count": 640,
      "max": [
        0.008732124231755733,
        0.009004130028188229
      ],
      "min": [
        -0.00800000037997961,
        -0.00800000037997961
      ],
      "type": "VEC2"
    },
    {
      "bufferView": 0,
      "byteOffset": 28968,
      "componentType": 5125,
      "count": 960,
      "type": "SCALAR"
    },
    {
      "bufferView": 2,
      "byteOffset": 78744,
      "componentType": 5126,
      "count": 60,
      "max": [
        0.29109570384025574,
        0.22500863671302795,
        -0.28068721294403076
      ],
      "min": [
        0.2513487935066223,
        0.22480863332748413,
        -0.2818872034549713
      ],
      "type": "VEC3"
    },
    {
      "bufferView": 2,
      "byteOffset": 79464,
      "componentType": 5126,
      "count": 60,
      "max": [
        1.0,
        0.0,
        1.0
      ],
      "min": [
        -1.0,
        -1.0,
        -1.0
      ],
      "type": "VEC3"
    },
    {
      "bufferView": 1,
      "byteOffset": 26248,
      "componentType": 5126,
      "count": 60,
      "max": [
        0.00019999999494757503,
        0.012524999678134918
      ],
      "min": [
        -0.005799999926239252,
        -0.0012000000569969416
      ],
      "type": "VEC2"
    },
    {
      "bufferView": 0,
      "byteOffset": 32808,
      "componentType": 5125,
      "count": 90,
      "type": "SCALAR"
    },
    {
      "bufferView": 2,
      "byteOffset": 80184,
      "componentType": 5126,
      "count": 352,
      "max": [
        0.34545353055000305,
        0.2347322404384613,
        -0.2540126144886017
      ],
      "min": [
        0.3146941065788269,
        0.21861423552036285,
        -0.26651182770729065
      ],
      "type": "VEC3"
    },
    {
      "bufferView": 2,
      "byteOffset": 84408,
      "componentType": 5126,
      "count": 352,
      "max": [
        1.0,
        1.0,
        1.0
      ],
      "min": [
        -1.0,
        -1.0,
        -1.0
      ],
      "type": "VEC3"
    },
    {
      "bufferView": 1,
      "byteOffset": 26728,
      "componentType": 5126,
      "count": 352,
      "max": [
        6.2831854820251465,
        3.1415927410125732
      ],
      "min": [
        -0.015379699878394604,
        -4.71238899230957
      ],
      "type": "VEC2"
    },
    {
      "bufferView": 0,
      "byteOffset": 33168,
      "componentType": 5125,
      "count": 774,
      "type": "SCALAR"
    },
    {
      "bufferView": 2,
      "byteOffset": 88632,
      "componentType": 5126,
      "count": 250,
      "max": [
        0.3454289138317108,
        0.34234845638275146,
        -0.2501264214515686
      ],
      "min": [
        0.2818025052547455,
        0.2246086299419403,
        -0.26298320293426514
      ],
      "type": "VEC3"
    },
    {
      "bufferView": 2,
      "byteOffset": 91632,
      "componentType": 5126,
      "count": 250,
      "max": [
        1.0,
        1.0,
        1.0
      ],
      "min": [
        -1.0,
        -1.0,
        -1.0
      ],
      "type": "VEC3"
    },
    {
      "bufferView": 1,
      "byteOffset": 29544,
      "componentType": 5126,
      "count": 250,
      "max": [
        6.2831854820251465,
        0.023000000044703484
      ],
      "min": [
        -0.3490658402442932,
        -1.5707963705062866
      ],
      "type": "VEC2"
    },
    {
      "bufferView": 0,
      "byteOffset": 36264,
      "componentType": 5125,
      "count": 558,
      "type": "SCALAR"
    },
    {
      "bufferView": 2,
      "byteOffset": 94632,
      "componentType": 5126,
      "count": 580,
      "max": [
        0.34545353055000305,
        0.23700863122940063,
        -0.2501264214515686
      ],
      "min": [
        0.3146941065788269,
        0.2246086299419403,
        -0.26651182770729065
      ],
      "type": "VEC3"
    },
    {
      "bufferView": 2,
      "byteOffset": 101592,
      "componentType": 5126,
      "count": 580,
      "max": [
        1.0,
        1.0,
        1.0
      ],
      "min": [
        -1.0,
        -0.9999998807907104,
        -1.0
      ],
      "type": "VEC3"
    },
    {
      "bufferView": 1,
      "byteOffset": 31544,
      "componentType": 5126,
      "count": 580,
      "max": [
        6.055118560791016,
        0.01535509992390871
      ],
      "min": [
        -0.3490658402442932,
        -0.03071019984781742
      ],
      "type": "VEC2"
    },
    {
      "bufferView": 0,
      "byteOffset": 38496,
      "componentType": 5125,
      "count": 1434,
      "type": "SCALAR"
    },
    {
      "bufferView": 2,
      "byteOffset": 108552,
      "componentType": 5126,
      "count": 20,
      "max": [
        0.3377308249473572,
        0.21861423552036285,
        -0.2568202018737793
      ],
      "min": [
        0.3224168121814728,
        0.21861423552036285,
        -0.26370421051979065
      ],
      "type": "VEC3"
    },
    {
      "bufferView": 2,
      "byteOffset": 108792,
      "componentType": 5126,
      "count": 20,
      "max": [
        9.155552834272385e-05,
        -1.0,
        -0.0
      ],
      "min": [
        -3.0518509447574615e-05,
        -1.0,
        -0.0
      ],
      "type": "VEC3"
    },
    {
      "bufferView": 1,
      "byteOffset": 36184,
      "componentType": 5126,
      "count": 20,
      "max": [
        0.007656999863684177,
        0.003441999899223447
      ],
      "min": [
        -0.007656999863684177,
        -0.003441999899223447
      ],
      "type": "VEC2"
    },
    {
      "bufferView": 0,
      "byteOffset": 44232,
      "componentType": 5125,
      "count": 54,
      "type": "SCALAR"
    },
    {
      "bufferView": 2,
      "byteOffset": 109032,
      "componentType": 5126,
      "count": 64,
      "max": [
        0.2929457128047943,
        0.24860863387584686,
        -0.25398722290992737
      ],
      "min": [
        0.27764570713043213,
        0.2246086299419403,
        -0.284737229347229
      ],
      "type": "VEC3"
    },
    {
      "bufferView": 2,
      "byteOffset": 109800,
      "componentType": 5126,
      "count": 64,
      "max": [
        1.0,
        1.0,
        1.0
      ],
      "min": [
        -1.0,
        -1.0,
        -1.0
      ],
      "type": "VEC3"
    },
    {
      "bufferView": 1,
      "byteOffset": 36344,
      "componentType": 5126,
      "count": 64,
      "max": [
        0.024000000208616257,
        0.030750000849366188
      ],
      "min": [
        -0.024000000208616257,
        -0.015375000424683094
      ],
      "type": "VEC2"
    },
    {
      "bufferView": 0,
      "byteOffset": 44448,
      "componentType": 5125,
      "count": 150,
      "type": "SCALAR"
    },
    {
      "bufferView": 2,
      "byteOffset": 110568,
      "componentType": 5126,
      "count": 72,
      "max": [
        0.29029572010040283,
        0.23660863935947418,
        -0.25811222195625305
      ],
      "min": [
        0.2802956998348236,
        0.22660863399505615,
        -0.2666122019290924
      ],
      "type": "VEC3"
    },
    {
      "bufferView": 2,
      "byteOffset": 111432,
      "componentType": 5126,
      "count": 72,
      "max": [
        1.0,
        0.0,
        1.0
      ],
      "min": [
        -1.0,
        -1.0,
        -1.0
      ],
      "type": "VEC3"
    },
    {
      "bufferView": 1,
      "byteOffset": 36856,
      "componentType": 5126,
      "count": 72,
      "max": [
        0.011250000447034836,
        0.009999999776482582
      ],
      "min": [
        -0.011250000447034836,
        -0.010950000025331974
      ],
      "type": "VEC2"
    },
    {
      "bufferView": 0,
      "byteOffset": 45048,
      "componentType": 5125,
      "count": 108,
      "type": "SCALAR"
    },
    {
      "bufferView": 2,
      "byteOffset": 112296,
      "componentType": 5126,
      "count": 84,
      "max": [
        0.31093278527259827,
        0.24860863387584686,
        -0.25398722290992737
      ],
      "min": [
        0.2956327795982361,
        0.2246086299419403,
        -0.284737229347229
      ],
      "type": "VEC3"
    },
    {
      "bufferView": 2,
      "byteOffset": 113304,
      "componentType": 5126,
      "count": 84,
      "max": [
        1.0,
        1.0,
        1.0
      ],
      "min": [
        -1.0,
        -1.0,
        -1.0
      ],
      "type": "VEC3"
    },
    {
      "bufferView": 1,
      "byteOffset": 37432,
      "componentType": 5126,
      "count": 84,
      "max": [
        0.024000000208616257,
        0.030750000849366188
      ],
      "min": [
        -0.024000000208616257,
        -0.015375000424683094
      ],
      "type": "VEC2"
    },
    {
      "bufferView": 0,
      "byteOffset": 45480,
      "componentType": 5125,
      "count": 162,
      "type": "SCALAR"
    },
    {
      "bufferView": 2,
      "byteOffset": 114312,
      "componentType": 5126,
      "count": 72,
      "max": [
        0.3082827627658844,
        0.23660863935947418,
        -0.25811222195625305
      ],
      "min": [
        0.29828277230262756,
        0.22660863399505615,
        -0.2666122019290924
      ],
      "type": "VEC3"
    },
    {
      "bufferView": 2,
      "byteOffset": 115176,
      "componentType": 5126,
      "count": 72,
      "max": [
        1.0,
        0.0,
        1.0
      ],
      "min": [
        -1.0,
        -1.0,
        -1.0
      ],
      "type": "VEC3"
    },
    {
      "bufferView": 1,
      "byteOffset": 38104,
      "componentType": 5126,
      "count": 72,
      "max": [
        0.011250000447034836,
        0.009999999776482582
      ],
      "min": [
        -0.011250000447034836,
        -0.010950000025331974
      ],
      "type": "VEC2"
    },
    {
      "bufferView": 0,
      "byteOffset": 46128,
      "componentType": 5125,
      "count": 108,
      "type": "SCALAR"
    },
    {
      "bufferView": 2,
      "byteOffset": 116040,
      "componentType": 5126,
      "count": 36,
      "max": [
        0.3074827790260315,
        0.23460863530635834,
        -0.27683722972869873
      ],
      "min": [
        0.29908275604248047,
        0.22560863196849823,
        -0.27843722701072693
      ],
      "type": "VEC3"
    },
    {
      "bufferView": 2,
      "byteOffset": 116472,
      "componentType": 5126,
      "count": 36,
      "max": [
        1.0,
        0.0,
        1.0
      ],
      "min": [
        -1.0,
        -1.0,
        -1.0
      ],
      "type": "VEC3"
    },
    {
      "bufferView": 1,
      "byteOffset": 38680,
      "componentType": 5126,
      "count": 36,
      "max": [
        0.009074999950826168,
        0.008674999698996544
      ],
      "min": [
        -0.009074999950826168,
        -0.008999999612569809
      ],
      "type": "VEC2"
    },
    {
      "bufferView": 0,
      "byteOffset": 46560,
      "componentType": 5125,
      "count": 54,
      "type": "SCALAR"
    },
    {
      "bufferView": 2,
      "byteOffset": 116904,
      "componentType": 5126,
      "count": 1188,
      "max": [
        0.3378024995326996,
        0.3638484477996826,
        -0.25398722290992737
      ],
      "min": [
        0.2528024911880493,
        0.29384845495224,
        -0.25958722829818726
      ],
      "type": "VEC3"
    },
    {
      "bufferView": 2,
      "byteOffset": 131160,
      "componentType": 5126,
      "count": 1188,
      "max": [
        1.0,
        1.0,
        1.0
      ],
      "min": [
        -1.0,
        -1.0,
        -1.0
      ],
      "type": "VEC3"
    },
    {
      "bufferView": 1,
      "byteOffset": 38968,
      "componentType": 5126,
      "count": 1188,
      "max": [
        6.544984817504883,
        0.042500000447034836
      ],
      "min": [
        -0.2617993950843811,
        -0.042500000447034836
      ],
      "type": "VEC2"
    },
    {
      "bufferView": 0,
      "byteOffset": 46776,
      "componentType": 5125,
      "count": 3228,
      "type": "SCALAR"
    },
    {
      "bufferView": 2,
      "byteOffset": 145416,
      "componentType": 5126,
      "count": 312,
      "max": [
        0.32030248641967773,
        0.35184845328330994,
        -0.25558722019195557
      ],
      "min": [
        0.27030250430107117,
        0.30584844946861267,
        -0.25958722829818726
      ],
      "type": "VEC3"
    },
    {
      "bufferView": 2,
      "byteOffset": 149160,
      "componentType": 5126,
      "count": 312,
      "max": [
        1.0,
        1.0,
        1.0
      ],
      "min": [
        -1.0,
        -1.0,
        -1.0
      ],
      "type": "VEC3"
    },
    {
      "bufferView": 1,
      "byteOffset": 48472,
      "componentType": 5126,
      "count": 312,
      "max": [
        6.2831854820251465,
        0.02500000037252903
      ],
      "min": [
        -0.05000000074505806,
        -0.02500000037252903
      ],
      "type": "VEC2"
    },
    {
      "bufferView": 0,
      "byteOffset": 59688,
      "componentType": 5125,
      "count": 672,
      "type": "SCALAR"
    },
    {
      "bufferView": 2,
      "byteOffset": 152904,
      "componentType": 5126,
      "count": 44,
      "max": [
        0.2187286913394928,
        0.3576563894748688,
        -0.25398722290992737
      ],
      "min": [
        0.2099286913871765,
        0.26870638132095337,
        -0.2642372250556946
      ],
      "type": "VEC3"
    },
    {
      "bufferView": 2,
      "byteOffset": 153432,
      "componentType": 5126,
      "count": 44,
      "max": [
        1.0,
        1.0,
        1.0
      ],
      "min": [
        -1.0,
        -1.0,
        -1.0
      ],
      "type": "VEC3"
    },
    {
      "bufferView": 1,
      "byteOffset": 50968,
      "componentType": 5126,
      "count": 44,
      "max": [
        0.11025000363588333,
        0.02250000089406967
      ],
      "min": [
        -0.11025000363588333,
        -0.11025000363588333
      ],
      "type": "VEC2"
    },
    {
      "bufferView": 0,
      "byteOffset": 62376,
      "componentType": 5125,
      "count": 96,
      "type": "SCALAR"
    },
    {
      "bufferView": 2,
      "byteOffset": 153960,
      "componentType": 5126,
      "count": 40,
      "max": [
        0.21592868864536285,
        0.3557063937187195,
        -0.2562372088432312
      ],
      "min": [
        0.21402868628501892,
        0.27065640687942505,
        -0.2642372250556946
      ],
      "type": "VEC3"
    },
    {
      "bufferView": 2,
      "byteOffset": 154440,
      "componentType": 5126,
      "count": 40,
      "max": [
        1.0,
        1.0,
        -0.0
      ],
      "min": [
        -1.0,
        -1.0,
        -1.0
      ],
      "type": "VEC3"
    },
    {
      "bufferView": 1,
      "byteOffset": 51320,
      "componentType": 5126,
      "count": 40,
      "max": [
        0.07164999842643738,
        0.00800000037997961
      ],
      "min": [
        -0.08500000089406967,
        -0.00019999999494757503
      ],
      "type": "VEC2"
    },
    {
      "bufferView": 0,
      "byteOffset": 62760,
      "componentType": 5125,
      "count": 60,
      "type": "SCALAR"
    },
    {
      "bufferView": 2,
      "byteOffset": 154920,
      "componentType": 5126,
      "count": 100,
      "max": [
        0.3088024854660034,
        0.34234845638275146,
        -0.2583872079849243
      ],
      "min": [
        0.2818025052547455,
        0.31534844636917114,
        -0.2599872052669525
      ],
      "type": "VEC3"
    },
    {
      "bufferView": 2,
      "byteOffset": 156120,
      "componentType": 5126,
      "count": 100,
      "max": [
        1.0,
        1.0,
        -0.0
      ],
      "min": [
        -1.0,
        -1.0,
        -1.0
      ],
      "type": "VEC3"
    },
    {
      "bufferView": 1,
      "byteOffset": 51640,
      "componentType": 5126,
      "count": 100,
      "max": [
        6.2831854820251465,
        0.024800000712275505
      ],
      "min": [
        -0.023000000044703484,
        -0.0017999999690800905
      ],
      "type": "VEC2"
    },
    {
      "bufferView": 0,
      "byteOffset": 63000,
      "componentType": 5125,
      "count": 246,
      "type": "SCALAR"
    }
  ],
  "asset": {
    "extras": {
      "author": "cavicom (https://sketchfab.com/cavicomdb)",
      "license": "CC-BY-4.0 (http://creativecommons.org/licenses/by/4.0/)",
      "source": "https://sketchfab.com/3d-models/mini-itx-8048cbfb32414c1fa9e71d33df2bdf20",
      "title": "Mini ITX"
    },
    "generator": "Sketchfab-16.85.0",
    "version": "2.0"
  },
  "bufferViews": [
    {
      "buffer": 0,
      "byteLength": 63984,
      "name": "floatBufferViews",
      "target": 34963
    },
    {
      "buffer": 0,
      "byteLength": 52440,
      "byteOffset": 63984,
      "byteStride": 8,
      "name": "floatBufferViews",
      "target": 34962
    },
    {
      "buffer": 0,
      "byteLength": 157320,
      "byteOffset": 116424,
      "byteStride": 12,
      "name": "floatBufferViews",
      "target": 34962
    }
  ],
  "buffers": [
    {
      "byteLength": 273744,
      "uri": "scene.bin"
    }
  ],
  "extensionsUsed": [
    "KHR_materials_specular"
  ],
  "materials": [
    {
      "doubleSided": true,
      "extensions": {
        "KHR_materials_specular": {
          "specularColorFactor": [
            1.0,
            1.0,
            1.0
          ],
          "specularFactor": 0.0
        }
      },
      "name": "material",
      "pbrMetallicRoughness": {
        "baseColorFactor": [
          0.0,
          0.0958714589959356,
          0.0,
          1.0
        ],
        "metallicFactor": 0.0,
        "roughnessFactor": 0.2034442771665012
      }
    },
    {
      "doubleSided": true,
      "name": "material_1",
      "pbrMetallicRoughness": {
        "baseColorFactor": [
          0.0320702647,
          0.0320702647,
          0.0320702647,
          1.0
        ],
        "metallicFactor": 0.0,
        "roughnessFactor": 0.183503
      }
    },
    {
      "doubleSided": true,
      "name": "material_2",
      "pbrMetallicRoughness": {
        "baseColorFactor": [
          0.6587261704,
          0.6587261704,
          0.6587261704,
          1.0
        ],
        "metallicFactor": 0.7358022472,
        "roughnessFactor": 0.183503
      }
    },
    {
      "doubleSided": true,
      "name": "material_3",
      "pbrMetallicRoughness": {
        "baseColorFactor": [
          0.0,
          0.0,
          0.0,
          1.0
        ],
        "metallicFactor": 0.0,
        "roughnessFactor": 0.183503
      }
    },
    {
      "doubleSided": true,
      "name": "material_4",
      "pbrMetallicRoughness": {
        "baseColorFactor": [
          0.0,
          0.5398581961251028,
          0.1649619096652385,
          1.0
        ],
        "metallicFactor": 0.0,
        "roughnessFactor": 0.183503
      }
    },
    {
      "doubleSided": true,
      "name": "material_5",
      "pbrMetallicRoughness": {
        "baseColorFactor": [
          0.0,
          0.37737308741103126,
          0.4284024964542104,
          1.0
        ],
        "metallicFactor": 0.0,
        "roughnessFactor": 0.183503
      }
    },
    {
      "doubleSided": true,
      "name": "material_6",
      "pbrMetallicRoughness": {
        "baseColorFactor": [
          0.4162695624,
          0.4162695624,
          0.4162695624,
          1.0
        ],
        "roughnessFactor": 0.4395627312
      }
    },
    {
      "doubleSided": true,
      "name": "material_7",
      "pbrMetallicRoughness": {
        "baseColorFactor": [
          0.3697564567493299,
          0.3697564567493299,
          0.3697564567493299,
          1.0
        ],
        "metallicFactor": 0.9049041906113583,
        "roughnessFactor": 0.183503
      }
    },
    {
      "doubleSided": true,
      "name": "material_8",
      "pbrMetallicRoughness": {
        "baseColorFactor": [
          1.0,
          1.0,
          0.0,
          1.0
        ],
        "roughnessFactor": 0.10135884433011366
      }
    },
    {
      "doubleSided": true,
      "emissiveFactor": [
        0.8145533386,
        0.7404297739,
        0.0016835826
      ],
      "name": "material_9",
      "pbrMetallicRoughness": {
        "baseColorFactor": [
          0.752941,
          0.752941,
          0.0,
          1.0
        ],
        "metallicFactor": 0.0,
        "roughnessFactor": 0.183503
      }
    },
    {
      "doubleSided": true,
      "name": "material_10",
      "pbrMetallicRoughness": {
        "baseColorFactor": [
          0.5682861371,
          0.5682861371,
          0.5682861371,
          1.0
        ],
        "roughnessFactor": 0.5710864649
      }
    },
    {
      "doubleSided": true,
      "name": "material_11",
      "pbrMetallicRoughness": {
        "baseColorFactor": [
          0.788235,
          0.945098,
          1.0,
          1.0
        ],
        "metallicFactor": 0.6794349327,
        "roughnessFactor": 0.183503
      }
    },
    {
      "doubleSided": true,
      "name": "material_12",
      "pbrMetallicRoughness": {
        "baseColorFactor": [
          0.007171008781494873,
          0.049205116873406333,
          0.14517516884002757,
          1.0
        ],
        "metallicFactor": 0.0
      }
    },
    {
      "doubleSided": true,
      "name": "material_13",
      "pbrMetallicRoughness": {
        "baseColorFactor": [
          0.717647,
          0.823529,
          1.0,
          1.0
        ],
        "metallicFactor": 0.0,
        "roughnessFactor": 0.183503
      }
    },
    {
      "doubleSided": true,
      "name": "material_14",
      "pbrMetallicRoughness": {
        "baseColorFactor": [
          0.0766909447829921,
          0.0766909447829921,
          0.0766909447829921,
          1.0
        ],
        "metallicFactor": 0.0,
        "roughnessFactor": 0.183503
      }
    },
    {
      "doubleSided": true,
      "name": "material_15",
      "pbrMetallicRoughness": {
        "baseColorFactor": [
          0.5901675242,
          0.5901675242,
          0.5901675242,
          1.0
        ],
        "roughnessFactor": 0.4959300456
      }
    },
    {
      "doubleSided": true,
      "name": "material_16",
      "pbrMetallicRoughness": {
        "baseColorFactor": [
          0.2358796192949404,
          0.2358796192949404,
          0.2358796192949404,
          1.0
        ],
        "metallicFactor": 0.7608543869575037,
        "roughnessFactor": 0.183503
      }
    },
    {
      "doubleSided": true,
      "name": "material_17",
      "pbrMetallicRoughness": {
        "baseColorFactor": [
          0.0,
          0.0,
          0.0,
          1.0
        ],
        "metallicFactor": 0.0,
        "roughnessFactor": 0.183503
      }
    },
    {
      "doubleSided": true,
      "name": "material_18",
      "pbrMetallicRoughness": {
        "baseColorFactor": [
          0.021243946,
          0.021243946,
          0.021243946,
          1.0
        ],
        "metallicFactor": 0.0,
        "roughnessFactor": 0.124405
      }
    },
    {
      "doubleSided": true,
      "name": "material_19",
      "pbrMetallicRoughness": {
        "baseColorFactor": [
          0.2446101078149307,
          0.2446101078149307,
          0.2446101078149307,
          1.0
        ],
        "metallicFactor": 0.8485368761381109,
        "roughnessFactor": 0.124405
      }
    },
    {
      "doubleSided": true,
      "name": "material_20",
      "pbrMetallicRoughness": {
        "baseColorFactor": [
          0.21485821581700895,
          0.21485821581700895,
          0.21485821581700895,
          1.0
        ],
        "roughnessFactor": 0.183503
      }
    },
    {
      "doubleSided": true,
      "name": "material_21",
      "pbrMetallicRoughness": {
        "baseColorFactor": [
          0.0,
          0.0,
          0.0,
          1.0
        ],
        "metallicFactor": 0.0,
        "roughnessFactor": 0.183503
      }
    },
    {
      "doubleSided": true,
      "name": "material_22",
      "pbrMetallicRoughness": {
        "baseColorFactor": [
          0.0,
          0.0,
          0.0,
          1.0
        ],
        "metallicFactor": 0.9550084701,
        "roughnessFactor": 0.183503
      }
    },
    {
      "doubleSided": true,
      "name": "material_23",
      "pbrMetallicRoughness": {
        "baseColorFactor": [
          0.18733173123559055,
          0.18733173123559055,
          0.18733173123559055,
          1.0
        ],
        "metallicFactor": 0.0,
        "roughnessFactor": 0.183503
      }
    }
  ],
  "meshes": [
    {
      "name": "Object_0",
      "primitives": [
        {
          "attributes": {
            "NORMAL": 1,
            "POSITION": 0,
            "TEXCOORD_0": 2
          },
          "indices": 3,
          "material": 0,
          "mode": 4
        }
      ]
    },
    {
      "name": "Object_1",
      "primitives": [
        {
          "attributes": {
            "NORMAL": 5,
            "POSITION": 4,
            "TEXCOORD_0": 6
          },
          "indices": 7,
          "material": 1,
          "mode": 4
        }
      ]
    },
    {
      "name": "Object_2",
      "primitives": [
        {
          "attributes": {
            "NORMAL": 9,
            "POSITION": 8,
            "TEXCOORD_0": 10
          },
          "indices": 11,
          "material": 2,
          "mode": 4
        }
      ]
    },
    {
      "name": "Object_3",
      "primitives": [
        {
          "attributes": {
            "NORMAL": 13,
            "POSITION": 12,
            "TEXCOORD_0": 14
          },
          "indices": 15,
          "material": 3,
          "mode": 4
        }
      ]
    },
    {
      "name": "Object_4",
      "primitives": [
        {
          "attributes": {
            "NORMAL": 17,
            "POSITION": 16,
            "TEXCOORD_0": 18
          },
          "indices": 19,
          "material": 4,
          "mode": 4
        }
      ]
    },
    {
      "name": "Object_5",
      "primitives": [
        {
          "attributes": {
            "NORMAL": 21,
            "POSITION": 20,
            "TEXCOORD_0": 22
          },
          "indices": 23,
          "material": 5,
          "mode": 4
        }
      ]
    },
    {
      "name": "Object_6",
      "primitives": [
        {
          "attributes": {
            "NORMAL": 25,
            "POSITION": 24,
            "TEXCOORD_0": 26
          },
          "indices": 27,
          "material": 6,
          "mode": 4
        }
      ]
    },
    {
      "name": "Object_7",
      "primitives": [
        {
          "attributes": {
            "NORMAL": 29,
            "POSITION": 28,
            "TEXCOORD_0": 30
          },
          "indices": 31,
          "material": 7,
          "mode": 4
        }
      ]
    },
    {
      "name": "Object_8",
      "primitives": [
        {
          "attributes": {
            "NORMAL": 33,
            "POSITION": 32,
            "TEXCOORD_0": 34
          },
          "indices": 35,
          "material": 8,
          "mode": 4
        }
      ]
    },
    {
      "name": "Object_9",
      "primitives": [
        {
          "attributes": {
            "NORMAL": 37,
            "POSITION": 36,
            "TEXCOORD_0": 38
          },
          "indices": 39,
          "material": 9,
          "mode": 4
        }
      ]
    },
    {
      "name": "Object_10",
      "primitives": [
        {
          "attributes": {
            "NORMAL": 41,
            "POSITION": 40,
            "TEXCOORD_0": 42
          },
          "indices": 43,
          "material": 10,
          "mode": 4
        }
      ]
    },
    {
      "name": "Object_11",
      "primitives": [
        {
          "attributes": {
            "NORMAL": 45,
            "POSITION": 44,
            "TEXCOORD_0": 46
          },
          "indices": 47,
          "material": 11,
          "mode": 4
        }
      ]
    },
    {
      "name": "Object_12",
      "primitives": [
        {
          "attributes": {
            "NORMAL": 49,
            "POSITION": 48,
            "TEXCOORD_0": 50
          },
          "indices": 51,
          "material": 12,
          "mode": 4
        }
      ]
    },
    {
      "name": "Object_13",
      "primitives": [
        {
          "attributes": {
            "NORMAL": 53,
            "POSITION": 52,
            "TEXCOORD_0": 54
          },
          "indices": 55,
          "material": 13,
          "mode": 4
        }
      ]
    },
    {
      "name": "Object_14",
      "primitives": [
        {
          "attributes": {
            "NORMAL": 57,
            "POSITION": 56,
            "TEXCOORD_0": 58
          },
          "indices": 59,
          "material": 14,
          "mode": 4
        }
      ]
    },
    {
      "name": "Object_15",
      "primitives": [
        {
          "attributes": {
            "NORMAL": 61,
            "POSITION": 60,
            "TEXCOORD_0": 62
          },
          "indices": 63,
          "material": 15,
          "mode": 4
        }
      ]
    },
    {
      "name": "Object_16",
      "primitives": [
        {
          "attributes": {
            "NORMAL": 65,
            "POSITION": 64,
            "TEXCOORD_0": 66
          },
          "indices": 67,
          "material": 16,
          "mode": 4
        }
      ]
    },
    {
      "name": "Object_17",
      "primitives": [
        {
          "attributes": {
            "NORMAL": 69,
            "POSITION": 68,
            "TEXCOORD_0": 70
          },
          "indices": 71,
          "material": 17,
          "mode": 4
        }
      ]
    },
    {
      "name": "Object_18",
      "primitives": [
        {
          "attributes": {
            "NORMAL": 73,
            "POSITION": 72,
            "TEXCOORD_0": 74
          },
          "indices": 75,
          "material": 18,
          "mode": 4
        }
      ]
    },
    {
      "name": "Object_19",
      "primitives": [
        {
          "attributes": {
            "NORMAL": 77,
            "POSITION": 76,
            "TEXCOORD_0": 78
          },
          "indices": 79,
          "material": 19,
          "mode": 4
        }
      ]
    },
    {
      "name": "Object_20",
      "primitives": [
        {
          "attributes": {
            "NORMAL": 81,
            "POSITION": 80,
            "TEXCOORD_0": 82
          },
          "indices": 83,
          "material": 20,
          "mode": 4
        }
      ]
    },
    {
      "name": "Object_21",
      "primitives": [
        {
          "attributes": {
            "NORMAL": 85,
            "POSITION": 84,
            "TEXCOORD_0": 86
          },
          "indices": 87,
          "material": 21,
          "mode": 4
        }
      ]
    },
    {
      "name": "Object_22",
      "primitives": [
        {
          "attributes": {
            "NORMAL": 89,
            "POSITION": 88,
            "TEXCOORD_0": 90
          },
          "indices": 91,
          "material": 22,
          "mode": 4
        }
      ]
    },
    {
      "name": "Object_23",
      "primitives": [
        {
          "attributes": {
            "NORMAL": 93,
            "POSITION": 92,
            "TEXCOORD_0": 94
          },
          "indices": 95,
          "material": 23,
          "mode": 4
        }
      ]
    }
  ],
  "nodes": [
    {
      "children": [
        1
      ],
      "matrix": [
        1.0,
        0.0,
        0.0,
        0.0,
        0.0,
        2.220446049250313e-16,
        -1.0,
        0.0,
        0.0,
        1.0,
        2.220446049250313e-16,
        0.0,
        0.0,
        0.0,
        0.0,
        1.0
      ],
      "name": "Sketchfab_model"
    },
    {
      "children": [
        2
      ],
      "name": "root"
    },
    {
      "children": [
        3
      ],
      "matrix": [
        1.0,
        0.0,
        0.0,
        0.0,
        0.0,
        2.220446049250313e-16,
        1.0,
        0.0,
        0.0,
        -1.0,
        2.220446049250313e-16,
        0.0,
        0.0,
        0.0,
        0.0,
        1.0
      ],
      "name": "GLTF_SceneRootNode"
    },
    {
      "children": [
        4,
        5,
        6,
        7,
        8,
        9,
        10,
        11,
        12,
        13,
        14,
        15,
        16,
        17,
        18,
        19,
        20,
        21,
        22,
        23,
        24,
        25,
        26,
        27
      ],
      "matrix": [
        1.0,
        0.0,
        0.0,
        0.0,
        0.0,
        -1.685873969314855e-07,
        0.9999999999999858,
        0.0,
        0.0,
        -0.9999999999999858,
        -1.685873969314855e-07,
        0.0,
        -0.2941383719444275,
        -0.2515912353992462,
        -0.31180432438850403,
        1.0
      ],
      "name": "MotherboardServer_1.0_2"
    },
    {
      "mesh": 0,
      "name": "Object_4"
    },
    {
      "mesh": 1,
      "name": "Object_5"
    },
    {
      "mesh": 2,
      "name": "Object_6"
    },
    {
      "mesh": 3,
      "name": "Object_7"
    },
    {
      "mesh": 4,
      "name": "Object_8"
    },
    {
      "mesh": 5,
      "name": "Object_9"
    },
    {
      "mesh": 6,
      "name": "Object_10"
    },
    {
      "mesh": 7,
      "name": "Object_11"
    },
    {
      "mesh": 8,
      "name": "Object_12"
    },
    {
      "mesh": 9,
      "name": "Object_13"
    },
    {
      "mesh": 10,
      "name": "Object_14"
    },
    {
      "mesh": 11,
      "name": "Object_15"
    },
    {
      "mesh": 12,
      "name": "Object_16"
    },
    {
      "mesh": 13,
      "name": "Object_17"
    },
    {
      "mesh": 14,
      "name": "Object_18"
    },
    {
      "mesh": 15,
      "name": "Object_19"
    },
    {
      "mesh": 16,
      "name": "Object_20"
    },
    {
      "mesh": 17,
      "name": "Object_21"
    },
    {
      "mesh": 18,
      "name": "Object_22"
    },
    {
      "mesh": 19,
      "name": "Object_23"
    },
    {
      "mesh": 20,
      "name": "Object_24"
    },
    {
      "mesh": 21,
      "name": "Object_25"
    },
    {
      "mesh": 22,
      "name": "Object_26"
    },
    {
      "mesh": 23,
      "name": "Object_27"
    }
  ],
  "scene": 0,
  "scenes": [
    {
      "name": "Sketchfab_Scene",
      "nodes": [
        0
      ]
    }
  ]
}
